<svg xmlns="http://www.w3.org/2000/svg" viewBox="-1 39 54 51" role="img" width="100" height="100">
	<title>T-Shirt Image</title>


	<g id="t-shirt" fill="#dbf227" stroke="#042940" strokeMiterlimit="10" strokeWidth=".1">
		<g id="right-sleeve">
			<path d="m11.91 42.89-1.03-.63L.11 53.54l7.56 7.5 3.58-2.61s1.37-5.18 1.49-8.76c.11-3.58-.83-6.79-.83-6.79Z" />
			<path
				d="m11.91 42.89.06-.1-1.03-.63s-.11-.02-.14.02L.03 53.46s-.04.12 0 .16l7.56 7.5s.1.04.15.01l3.58-2.61s.04-.04.04-.06c0 0 .34-1.3.7-3.04.18-.87.36-1.86.51-2.85.15-.99.25-1.99.28-2.89v-.61c0-1.67-.21-3.22-.42-4.36-.21-1.13-.42-1.85-.42-1.85 0-.03-.03-.05-.05-.07l-.06.1-.11.03s.22.76.43 1.88c.21 1.12.41 2.63.41 4.26v.61c-.03.89-.14 1.88-.28 2.87-.22 1.48-.52 2.95-.77 4.05-.12.55-.23 1.01-.31 1.32-.04.16-.07.28-.09.37-.01.04-.02.08-.03.1v.02l.11.03-.07-.09-3.5 2.55-7.42-7.36L10.89 42.4l.95.58.06-.1-.11.03.11-.03Z" />
			<path
				d="m8.28 60.18.18.17.06-.06-.18-.17-.06.06Zm-.26-.26.18.17.06-.06-.18-.17-.06.06Zm-.26-.26.18.17.06-.06-.18-.17-.06.06Zm-.26-.26.18.17.06-.06-.18-.17-.06.06Zm-.26-.26.18.17.06-.06-.18-.17-.06.06Zm-.26-.26.18.17.06-.06-.18-.17-.06.06Zm-.26-.26.18.17.06-.06-.18-.17-.06.06Zm-.26-.26.18.17.06-.06-.18-.17-.06.06Zm-.26-.26.18.17.06-.06-.18-.17-.06.06Zm-.26-.26.18.17.06-.06-.18-.17-.06.06Zm-.26-.26.18.17.06-.06-.18-.17-.06.06Zm-.26-.26.18.17.06-.06-.18-.17-.06.06Zm-.26-.26.18.17.06-.06-.18-.17-.06.06Zm-.26-.26.18.17.06-.06-.18-.17-.06.06Zm-.26-.26.18.17.06-.06-.18-.17-.06.06Zm-.26-.26.18.17.06-.06-.18-.17-.06.06Zm-.26-.26.18.17.06-.06-.18-.17-.06.06Zm-.26-.26.18.17.06-.06-.18-.17-.06.06Zm-.26-.26.18.17.06-.06-.18-.17-.06.06Zm-.26-.26.18.17.06-.06-.18-.17-.06.06Zm-.26-.26.18.17.06-.06-.18-.17-.06.06Zm-.26-.26.18.17.06-.06-.18-.17-.06.06Zm-.26-.26.18.17.06-.06-.18-.17-.06.06Zm-.26-.26.18.17.06-.06-.18-.17-.06.06Zm-.26-.26.18.17.06-.06-.18-.17-.06.06Zm-.26-.26.18.17.06-.06-.18-.17-.06.06Zm-.26-.26.18.17.06-.06-.18-.17-.06.06Zm-.26-.26.18.17.06-.06-.18-.17-.06.06ZM1 52.9l.18.17.06-.06-.18-.17-.06.06Zm7.46 7.09.18.17.06-.06-.18-.17-.06.06Zm-.26-.26.18.17.06-.06-.18-.17-.06.06Zm-.26-.26.18.17.06-.06-.18-.17-.06.06Zm-.26-.26.18.17.06-.06-.18-.17-.06.06Zm-.26-.26.18.17.06-.06-.18-.17-.06.06Zm-.26-.26.18.17.06-.06-.18-.17-.06.06Zm-.26-.26.18.17.06-.06-.18-.17-.06.06Zm-.26-.26.18.17.06-.06-.18-.17-.06.06Zm-.26-.26.18.17.06-.06-.18-.17-.06.06Zm-.26-.26.18.17.06-.06-.18-.17-.06.06Zm-.26-.26.18.17.06-.06-.18-.17-.06.06Zm-.26-.26.18.17.06-.06-.18-.17-.06.06Zm-.26-.26.18.17.06-.06-.18-.17-.06.06Zm-.26-.26.18.17.06-.06-.18-.17-.06.06Zm-.26-.26.18.17.06-.06-.18-.17-.06.06Zm-.26-.26.18.17.06-.06-.18-.17-.06.06Zm-.26-.26.18.17.06-.06-.18-.17-.06.06Zm-.26-.26.18.17.06-.06-.18-.17-.06.06Zm-.26-.26.18.17.06-.06-.18-.17-.06.06Zm-.26-.26.18.17.06-.06-.18-.17-.06.06Zm-.26-.26.18.17.06-.06-.18-.17-.06.06ZM3 54.53l.18.17.06-.06-.18-.17-.06.06Zm-.26-.26.18.17.06-.06-.18-.17-.06.06Zm-.26-.26.18.17.06-.06-.18-.17-.06.06Zm-.26-.26.18.17.06-.06-.18-.17-.06.06Zm-.26-.26.18.17.06-.06-.18-.17-.06.06Zm-.26-.26.18.17.06-.06-.18-.17-.06.06Zm-.26-.26.18.17.06-.06-.18-.17-.06.06Zm-.26-.26.18.17.06-.06-.18-.17-.06.06Z" />
		</g>
		<g id="left-sleeve">
			<path d="m40.34 42.57.74-.18L51.9 53.54l-7.53 7.47-3.87-2.86s-2.15-10.68-.17-15.57Z" />
			<path
				d="m40.34 42.57.03.11.68-.17 10.7 11.02-7.38 7.32-3.79-2.8-.07.09.11-.02v-.01c-.03-.15-.28-1.43-.52-3.25s-.48-4.17-.48-6.45c0-1.08.05-2.15.18-3.14.13-.99.34-1.89.64-2.65l-.11-.04.03.11-.03-.11-.11-.04c-.32.78-.53 1.71-.66 2.71s-.19 2.08-.19 3.17c0 2.37.25 4.81.5 6.66.25 1.85.5 3.1.5 3.1v.04l3.99 2.95 7.68-7.62-10.95-11.27-.87.21-.02.05.11.04Z" />
			<path
				d="m43.8 60.12-.18.17.06.06.18-.17-.06-.06Zm.26-.26-.18.17.06.06.18-.17-.06-.06Zm.26-.26-.18.17.06.06.18-.17-.06-.06Zm.26-.26-.18.17.06.06.18-.17-.06-.06Zm.26-.26-.18.17.06.06.18-.17-.06-.06Zm.26-.26-.18.17.06.06.18-.17-.06-.06Zm.26-.26-.18.17.06.06.18-.17-.06-.06Zm.26-.26-.18.17.06.06.18-.17-.06-.06Zm.26-.26-.18.17.06.06.18-.17-.06-.06Zm.26-.26-.18.17.06.06.18-.17-.06-.06Zm.26-.26-.18.17.06.06.18-.17-.06-.06Zm.26-.26-.18.17.06.06.18-.17-.06-.06Zm.26-.26-.18.17.06.06.18-.17-.06-.06Zm.26-.26-.18.17.06.06.18-.17-.06-.06Zm.26-.26-.18.17.06.06.18-.17-.06-.06Zm.26-.26-.18.17.06.06.18-.17-.06-.06Zm.26-.26-.18.17.06.06.18-.17-.06-.06Zm.26-.26-.18.17.06.06.18-.17-.06-.06Zm.26-.26-.18.17.06.06.18-.17-.06-.06Zm.26-.26-.18.17.06.06.18-.17-.06-.06Zm.26-.26-.18.17.06.06.18-.17-.06-.06Zm.26-.26-.18.17.06.06.18-.17-.06-.06Zm.26-.26-.18.17.06.06.18-.17-.06-.06Zm.26-.26-.18.17.06.06.18-.17-.06-.06Zm.26-.26-.18.17.06.06.18-.17-.06-.06Zm.26-.26-.18.17.06.06.18-.17-.06-.06Zm.26-.26-.18.17.06.06.18-.17-.06-.06Zm.26-.26-.18.17.06.06.18-.17-.06-.06Zm.26-.26-.18.17.06.06.18-.17-.06-.06Zm-7.46 7.09-.18.17.06.06.18-.17-.06-.06Zm.26-.26-.18.17.06.06.18-.17-.06-.06Zm.26-.26-.18.17.06.06.18-.17-.06-.06Zm.26-.26-.18.17.06.06.18-.17-.06-.06Zm.26-.26-.18.17.06.06.18-.17-.06-.06Zm.26-.26-.18.17.06.06.18-.17-.06-.06Zm.26-.26-.18.17.06.06.18-.17-.06-.06Zm.26-.26-.18.17.06.06.18-.17-.06-.06Zm.26-.26-.18.17.06.06.18-.17-.06-.06Zm.26-.26-.18.17.06.06.18-.17-.06-.06Zm.26-.26-.18.17.06.06.18-.17-.06-.06Zm.26-.26-.18.17.06.06.18-.17-.06-.06Zm.26-.26-.18.17.06.06.18-.17-.06-.06Zm.26-.26-.18.17.06.06.18-.17-.06-.06Zm.26-.26-.18.17.06.06.18-.17-.06-.06Zm.26-.26-.18.17.06.06.18-.17-.06-.06Zm.26-.26-.18.17.06.06.18-.17-.06-.06Zm.26-.26-.18.17.06.06.18-.17-.06-.06Zm.26-.26-.18.17.06.06.18-.17-.06-.06Zm.26-.26-.18.17.06.06.18-.17-.06-.06Zm.26-.26-.18.17.06.06.18-.17-.06-.06Zm.26-.26-.18.17.06.06.18-.17-.06-.06Zm.26-.26-.18.17.06.06.18-.17-.06-.06Zm.26-.26-.18.17.06.06.18-.17-.06-.06Zm.26-.26-.18.17.06.06.18-.17-.06-.06Zm.26-.26-.18.17.06.06.18-.17-.06-.06Zm.26-.26-.18.17.06.06.18-.17-.06-.06Zm.26-.26-.18.17.06.06.18-.17-.06-.06Zm.26-.26-.18.17.06.06.18-.17-.06-.06Z" />
		</g>
		<g id="t-shirt-body">
			<path
				d="m19.12 39.25-.68-.05-7.57 3.05s2.87 6.7 0 16.36c0 10.88-.38 31.99-.38 31.99s10.8.84 31-.04c0-17.18-.38-31.87-.38-31.87s-2.56-9.51-.04-16.3c-6.49-2.82-7.44-3.32-7.44-3.32s-3.36.88-7.67.95c-4.31.08-6.84-.77-6.84-.77Z" />
			<path
				d="M19.12 39.25v-.11l-.67-.05h-.05l-7.57 3.05s-.05.03-.06.06c-.01.03-.01.06 0 .09s1.27 3 1.27 7.8c0 2.41-.32 5.28-1.27 8.48v.03c0 5.44-.1 13.44-.19 20.07-.05 3.32-.1 6.3-.13 8.45-.02 1.07-.03 1.94-.04 2.54 0 .3 0 .53-.01.69v.24c0 .06.05.11.11.12 0 0 4.66.36 13.59.36 4.66 0 10.49-.1 17.42-.4.06 0 .11-.05.11-.11 0-17.18-.38-31.88-.38-31.88v-.03c-.02-.06-.3-1.14-.58-2.81-.28-1.66-.56-3.9-.56-6.29 0-2.38.28-4.91 1.1-7.13.02-.06 0-.12-.06-.14-3.24-1.41-5.1-2.24-6.15-2.72-.52-.24-.85-.39-1.04-.48-.1-.05-.16-.08-.2-.09-.02 0-.03-.02-.04-.02-.03-.01-.05-.02-.08 0-.1.03-3.41.88-7.64.95h-.54c-1.98 0-3.55-.19-4.62-.39-.54-.1-.95-.19-1.22-.27l-.31-.09a.31.31 0 0 0-.08-.02h-.05v.11l-.04.11s2.34.78 6.33.78h.55c4.33-.08 7.69-.96 7.7-.96l-.03-.11-.05.1s.24.13 1.29.6c1.05.48 2.91 1.31 6.16 2.72l.05-.11-.11-.04c-.84 2.26-1.12 4.81-1.12 7.21 0 2.44.29 4.73.58 6.41.29 1.68.58 2.75.58 2.75l.11-.03h-.11v.17c.04 1.68.38 15.6.38 31.7h.11v-.11c-6.94.3-12.76.4-17.42.4s-7.85-.09-10.13-.18c-1.14-.05-2-.09-2.57-.12-.29-.02-.5-.03-.65-.04-.07 0-.13 0-.16-.01h-.05v.11h.11s.38-21.11.38-31.99h-.11l.11.03c.96-3.22 1.27-6.12 1.27-8.55 0-4.88-1.28-7.88-1.29-7.89l-.11.05.04.11 7.54-3.04.65.05v-.11l-.03.11.04-.11Z" />
			<path
				d="M41.27 89.4c.08 0 .16 0 .23-.01v-.08c-.08 0-.16 0-.24.01v.08Zm-.37.02c.08 0 .16 0 .25-.01v-.08c-.09 0-.17 0-.25.01v.08Zm-.37.02c.08 0 .16 0 .25-.01v-.08c-.09 0-.17 0-.25.01v.08Zm-.37.02c.08 0 .16 0 .25-.01v-.08c-.09 0-.17 0-.25.01v.08Zm-.37.01h.25v-.08h-.25v.08Zm-.37.01h.25v-.08h-.25v.08Zm-.37.01h.25v-.08h-.25v.08Zm-.37.01h.25v-.08h-.25v.08Zm-.37.01h.25v-.08h-.25v.08Zm-.37.01h.25v-.08h-.25v.08Zm-.37.01h.25v-.08h-.25v.08Zm-.37.01h.25v-.08h-.25v.08Zm-.37.01h.25v-.08h-.25v.08Zm-.37.01h.25v-.08h-.25v.08Zm-.37.01h.25v-.08h-.25v.08Zm-.37.01h.25v-.08h-.25v.08Zm-.37.01h.25v-.08h-.25v.08Zm-.37.01h.25v-.08h-.25v.08Zm-.37.01h.25v-.08h-.25v.08Zm-.37.01h.25v-.08h-.25v.08Zm-.37 0h.25v-.08h-.25v.08Zm-.37 0h.25v-.08h-.25v.08Zm-.37 0h.25v-.08h-.25v.08Zm-.37 0h.25v-.08h-.25v.08Zm-.37 0h.25v-.08h-.25v.08Zm-.37 0h.25v-.08h-.25v.08Zm-.37 0h.25v-.08h-.25v.08Zm-.37 0h.25v-.08h-.25v.08Zm-.37 0h.25v-.08h-.25v.08Zm-.37 0h.25v-.08h-.25v.08Zm-.37 0h.25v-.08h-.25v.08Zm-.37 0h.25v-.08h-.25v.08Zm-.37 0h.25v-.08h-.25v.08Zm-.37 0h.25v-.08h-.25v.08Zm-.37 0h.25v-.08h-.25v.08Zm-.37 0h.25v-.08h-.25v.08Zm-.37 0h.25v-.08h-.25v.08Zm-.37 0h.25v-.08h-.25v.08Zm-.37 0h.25v-.08h-.25v.08Zm-.37 0h.25v-.08h-.25v.08Zm-.37 0h.25v-.08h-.25v.08Zm-.37 0h.25v-.08h-.25v.08Zm-.37 0h.25v-.08h-.25v.08Zm-.37 0h.25v-.08h-.25v.08Zm-.37 0h.25v-.08h-.25v.08Zm-.37 0h.25v-.08h-.25v.08Zm-.37 0h.25v-.08h-.25v.08Zm-.37 0h.25v-.08h-.25v.08Zm-.37 0h.25v-.08h-.25v.08Zm-.37 0h.25v-.08h-.25v.08Zm-.37 0h.25v-.08h-.25v.08Zm-.37 0h.25v-.08h-.25v.08Zm-.37 0h.25v-.08h-.25v.08Zm-.37 0h.25v-.08h-.25v.08Zm-.37 0h.25v-.08h-.25v.08Zm-.37 0h.25v-.08h-.25v.08Zm-.37 0h.25v-.08h-.25v.08Zm-.37 0h.25v-.08h-.25v.08Zm-.37 0h.25v-.08h-.25v.08Zm-.37 0h.25v-.08h-.25v.08Zm-.37 0h.25v-.08h-.25v.08Zm-.37 0h.25v-.08h-.25v.08Zm-.37 0h.25v-.08h-.25v.08Zm-.37 0h.25v-.08h-.25v.08Zm-.37 0h.25v-.08h-.25v.08Zm-.37 0h.25v-.08h-.25v.08Zm-.37 0h.25v-.08h-.25v.08Zm-.37 0h.25v-.08h-.24v.08Zm-.37-.01h.25v-.08h-.24v.08Zm-.37-.01h.25v-.08h-.24v.08Zm-.37-.01h.25v-.08h-.24v.08Zm-.37-.01h.25v-.08h-.24v.08Zm-.37-.01h.25v-.08h-.24v.08Zm-.37-.01h.25v-.08h-.24v.08Zm-.37-.01h.25v-.08h-.24v.08Zm-.37-.02c.08 0 .16 0 .25.01v-.08c-.08 0-.16 0-.24-.01v.08Zm-.37-.02c.08 0 .16 0 .25.01v-.08c-.08 0-.16 0-.24-.01v.08Zm-.37-.02c.08 0 .16 0 .25.01v-.08c-.08 0-.16 0-.24-.01v.08Zm-.37-.02c.08 0 .16 0 .25.01v-.08c-.08 0-.16 0-.24-.01v.08Zm-.37-.02c.08 0 .16 0 .25.01v-.08c-.08 0-.16 0-.24-.01v.08Zm-.37-.02c.08 0 .16 0 .25.01v-.08c-.08 0-.16 0-.24-.01v.08Zm-.38-.02c.08 0 .16 0 .25.01v-.08c-.08 0-.17 0-.24-.01v.08Zm-.38-.02c.07 0 .15 0 .25.02v-.08c-.09 0-.17-.01-.24-.02v.08Zm-.37-.03s.08 0 .25.02v-.08c-.08 0-.14 0-.18-.01h-.06v.08Zm30.73-.25c.08 0 .16 0 .23-.01v-.08c-.08 0-.16 0-.24.01v.08Zm-.37.02c.08 0 .16 0 .25-.01v-.08c-.09 0-.17 0-.25.01v.08Zm-.37.02c.08 0 .16 0 .25-.01v-.08c-.09 0-.17 0-.25.01v.08Zm-.37.02c.08 0 .16 0 .25-.01v-.08c-.09 0-.17 0-.25.01v.08Zm-.37.01h.25v-.08h-.25v.08Zm-.37.01h.25v-.08h-.25v.08Zm-.37.01h.25v-.08h-.25v.08Zm-.37.01h.25v-.08h-.25v.08Zm-.37.01h.25v-.08h-.25v.08Zm-.37.01h.25v-.08h-.25v.08Zm-.37.01h.25v-.08h-.25v.08Zm-.37.01h.25v-.08h-.25v.08Zm-.37.01h.25v-.08h-.25v.08Zm-.37.01h.25v-.08h-.25v.08Zm-.37.01h.25v-.08h-.25v.08Zm-.37.01h.25v-.08h-.25v.08Zm-.37.01h.25v-.08h-.25v.08Zm-.37.01h.25v-.08h-.25v.08Zm-.37.01h.25v-.08h-.25v.08Zm-.37.01h.25v-.08h-.25v.08Zm-.37 0h.25v-.08h-.25v.08Zm-.37 0h.25v-.08h-.25v.08Zm-.37 0h.25v-.08h-.25v.08Zm-.37 0h.25v-.08h-.25v.08Zm-.37 0h.25v-.08h-.25v.08Zm-.37 0h.25v-.08h-.25v.08Zm-.37 0h.25v-.08h-.25v.08Zm-.37 0h.25v-.08h-.25v.08Zm-.37 0h.25v-.08h-.25v.08Zm-.37 0h.25v-.08h-.25v.08Zm-.37 0h.25v-.08h-.25v.08Zm-.37 0h.25v-.08h-.25v.08Zm-.37 0h.25v-.08h-.25v.08Zm-.37 0h.25v-.08h-.25v.08Zm-.37 0h.25v-.08h-.25v.08Zm-.37 0h.25v-.08h-.25v.08Zm-.37 0h.25v-.08h-.25v.08Zm-.37 0h.25v-.08h-.25v.08Zm-.37 0h.25v-.08h-.25v.08Zm-.37 0h.25v-.08h-.25v.08Zm-.37 0h.25v-.08h-.25v.08Zm-.37 0h.25v-.08h-.25v.08Zm-.37 0h.25v-.08h-.25v.08Zm-.37 0h.25v-.08h-.25v.08Zm-.37 0h.25v-.08h-.25v.08Zm-.37 0h.25v-.08h-.25v.08Zm-.37 0h.25v-.08h-.25v.08Zm-.37 0h.25v-.08h-.25v.08Zm-.37 0h.25v-.08h-.25v.08Zm-.37 0h.25v-.08h-.25v.08Zm-.37 0h.25v-.08h-.25v.08Zm-.37 0h.25v-.08h-.25v.08Zm-.37 0h.25v-.08h-.25v.08Zm-.37 0h.25v-.08h-.25v.08Zm-.37 0h.25v-.08h-.25v.08Zm-.37 0h.25v-.08h-.25v.08Zm-.37 0h.25v-.08h-.25v.08Zm-.37 0h.25v-.08h-.25v.08Zm-.37 0h.25v-.08h-.25v.08Zm-.37 0h.25v-.08h-.25v.08Zm-.37 0h.25v-.08h-.25v.08Zm-.37 0h.25v-.08h-.25v.08Zm-.37 0h.25v-.08h-.25v.08Zm-.37 0h.25v-.08h-.25v.08Zm-.37 0h.25v-.08h-.25v.08Zm-.37 0h.25v-.08h-.25v.08Zm-.37 0h.25v-.08h-.25v.08Zm-.37 0h.25v-.08h-.24v.08Zm-.37-.01h.25v-.08h-.24v.08Zm-.37-.01h.25v-.08h-.24v.08Zm-.37-.01h.25v-.08h-.24v.08Zm-.37-.01h.25v-.08h-.24v.08Zm-.37-.01h.25v-.08h-.24v.08Zm-.37-.01h.25v-.08h-.24v.08Zm-.37-.01h.25v-.08h-.24v.08Zm-.37-.02c.08 0 .16 0 .25.01v-.08c-.08 0-.16 0-.24-.01v.08Zm-.37-.02c.08 0 .16 0 .25.01v-.08c-.08 0-.16 0-.24-.01v.08Zm-.37-.02c.08 0 .16 0 .25.01v-.08c-.08 0-.16 0-.24-.01v.08Zm-.37-.02c.08 0 .16 0 .25.01v-.08c-.08 0-.16 0-.24-.01v.08Zm-.37-.02c.08 0 .16 0 .25.01v-.08c-.08 0-.16 0-.24-.01v.08Zm-.37-.02c.08 0 .16 0 .25.01v-.08c-.08 0-.16 0-.24-.01v.08Zm-.38-.02c.08 0 .16 0 .25.01v-.08c-.08 0-.17 0-.24-.01v.08Zm-.38-.02c.07 0 .15 0 .25.02v-.08c-.09 0-.17-.01-.24-.02v.08Zm-.37-.03s.08 0 .25.02v-.08c-.08 0-.14 0-.18-.01h-.06v.08Z" />
		</g>
		<g id="t-shirt-collar">
			<path
				d="M20.77 41.04s6.82 1.46 11.17-.41c.16-.54-.25-1.01-.25-1.01s-2.72.49-6.3.49-5.31-.45-5.31-.45l.7 1.38Z" />
			<path
				d="m20.77 41.04-.02.11s2.54.55 5.52.55c.95 0 1.95-.06 2.93-.2.98-.15 1.93-.39 2.79-.76.03-.01.05-.04.06-.07.03-.1.04-.2.04-.29 0-.12-.02-.23-.05-.33-.04-.15-.11-.27-.16-.36a.683.683 0 0 0-.1-.14.15.15 0 0 0-.11-.04c-.08.01-2.76.49-6.28.49-1.79 0-3.11-.11-3.99-.23-.44-.06-.76-.11-.98-.15-.11-.02-.19-.04-.24-.05-.03 0-.05-.01-.06-.01h-.01v.04-.04.04-.04c-.04-.01-.09 0-.12.04s-.03.08-.01.12l.7 1.38s.04.05.08.06l.02-.11.1-.05-.7-1.38-.1.05-.03.11s1.75.46 5.34.46 6.32-.5 6.32-.5l-.02-.11-.09.08.04-.03-.04.03.04-.03-.04.03s.07.08.13.2c.03.06.06.13.09.21.02.08.04.17.04.26 0 .07 0 .15-.03.23l.11.03-.05-.11c-.84.36-1.77.6-2.73.74-.96.15-1.95.2-2.89.2-1.47 0-2.84-.14-3.84-.27-.5-.07-.91-.14-1.19-.19-.14-.03-.25-.05-.33-.06-.04 0-.07-.01-.08-.02h-.02l-.02.11.1-.05-.1.05Zm-2.38-1.34c-.03-.07-.07-.14-.09-.21l-.08.03.09.21.08-.04Zm.17.33c-.04-.08-.08-.15-.11-.22l-.07.04c.04.07.07.15.12.22l.07-.04Zm.18.32c-.04-.07-.09-.14-.12-.21l-.07.04c.04.07.08.14.13.22l.07-.04Zm.2.31c-.05-.07-.09-.14-.13-.21l-.07.04c.04.07.09.14.14.21l.07-.05Zm.21.31c-.05-.07-.1-.14-.14-.2l-.07.05c.05.07.09.14.14.21l.07-.05Zm.22.3c-.05-.07-.1-.13-.15-.2l-.07.05c.05.07.1.13.15.2l.07-.05Zm.24.29-.16-.19-.06.05.16.19.06-.05Zm.25.28c-.06-.06-.11-.12-.17-.18l-.06.05c.05.06.11.12.17.19l.06-.06Zm.26.27c-.06-.06-.12-.12-.17-.18l-.06.06.18.18.06-.06Zm.27.26c-.06-.06-.12-.11-.18-.17l-.06.06c.06.06.12.11.18.17l.06-.06Zm.28.24-.19-.16-.06.06.19.16.05-.06Zm.29.23c-.07-.05-.13-.1-.19-.15l-.05.06c.06.05.13.1.2.16l.05-.07Zm.3.22c-.07-.05-.14-.1-.2-.14l-.05.07c.07.05.13.1.2.15l.05-.07Zm.31.21c-.07-.04-.14-.09-.21-.14l-.05.07c.07.05.14.09.21.14l.04-.07Zm.32.19c-.07-.04-.14-.08-.21-.13l-.04.07c.07.04.14.09.22.13l.04-.07Zm.33.18c-.07-.04-.15-.08-.22-.12l-.04.07c.07.04.15.08.22.12l.04-.07Zm.33.16c-.08-.03-.15-.07-.22-.11l-.04.07c.07.04.15.07.23.11l.03-.08Zm.34.15c-.08-.03-.15-.06-.23-.1l-.03.08c.08.03.15.07.23.1l.03-.08Zm.35.13c-.08-.03-.16-.06-.23-.09l-.03.08c.08.03.16.06.23.09l.03-.08Zm.35.12c-.08-.02-.16-.05-.24-.08l-.03.08c.08.03.16.05.24.08l.02-.08Zm.36.1c-.08-.02-.16-.04-.24-.07l-.02.08c.08.02.16.05.24.07l.02-.08Zm.36.09-.24-.06-.02.08.24.06.02-.08Zm.36.07c-.08-.01-.16-.03-.24-.05l-.02.08c.08.02.16.03.25.05v-.08h.01Zm.37.06c-.08-.01-.16-.02-.25-.04v.08c.07.01.15.03.23.04v-.08h.01Zm.37.04c-.08 0-.17-.02-.25-.03v.08c.07.01.15.02.24.03v-.08Zm.37.03c-.08 0-.17-.01-.25-.02v.08c.08 0 .16.01.24.02v-.08Zm.37.02h-.25v.08h.25v-.08Zm.37 0h-.15v.04-.04h-.1v.08h.25v-.08Zm.37-.02c-.08 0-.16.01-.25.02v.08c.09 0 .17-.01.25-.02v-.08Zm.37-.04c-.08 0-.16.02-.25.03v.08c.09 0 .17-.02.26-.03v-.08Zm.37-.05c-.08.01-.16.02-.25.04v.08c.09-.01.18-.02.26-.04v-.08h-.01Zm.37-.07c-.08.02-.16.03-.24.05v.08c.1-.01.18-.03.26-.05l-.02-.08Zm.36-.08-.24.06.02.08.24-.06-.02-.08Zm.36-.09-.24.06.02.08c.08-.02.16-.04.24-.07l-.02-.08Zm.36-.11c-.08.03-.16.05-.24.07l.02.08c.08-.02.16-.05.24-.08l-.03-.08Zm.35-.13c-.08.03-.15.06-.23.09l.03.08c.08-.03.16-.06.23-.09l-.03-.08Zm.34-.14c-.08.03-.15.06-.23.1l.03.08c.08-.03.16-.06.23-.1l-.03-.08Zm.34-.16c-.07.04-.15.07-.22.11l.03.08c.08-.03.15-.07.23-.11l-.04-.07Zm.33-.17c-.07.04-.15.08-.22.11l.04.07c.08-.04.15-.08.22-.12l-.04-.07Zm.32-.18-.21.12.04.07c.07-.04.15-.08.22-.13l-.04-.07Zm.31-.2c-.07.05-.14.09-.21.13l.04.07c.07-.04.14-.09.21-.14l-.05-.07Zm.31-.21c-.07.05-.13.1-.2.14l.05.07c.07-.05.14-.1.2-.14l-.05-.07Zm.3-.23c-.06.05-.13.1-.2.15l.05.07c.07-.05.13-.1.2-.15l-.05-.06Zm.29-.24c-.06.05-.12.11-.19.16l.05.06c.07-.05.13-.11.19-.16l-.05-.06Zm.28-.25c-.06.06-.12.11-.18.17l.06.06c.06-.06.12-.11.18-.17l-.06-.06Zm.26-.26-.18.18.06.06.18-.18-.06-.06Zm.25-.27c-.05.06-.11.12-.17.18l.06.06c.06-.06.11-.12.17-.18l-.06-.06Zm.24-.28c-.05.06-.1.13-.16.19l.06.05c.06-.06.11-.13.16-.19l-.06-.05Zm.23-.29c-.05.06-.1.13-.15.2l.06.05c.05-.07.1-.13.15-.2l-.07-.05Zm.22-.3-.14.2.07.05c.05-.07.1-.14.15-.2l-.07-.05Zm.21-.31c-.04.07-.09.14-.14.21l.07.05c.05-.07.09-.14.14-.21l-.07-.04Zm.19-.32c-.04.07-.08.14-.13.21l.07.04c.05-.08.09-.15.13-.22l-.07-.04Zm.18-.33c-.03.07-.07.14-.12.22l.07.04c.04-.08.08-.16.12-.22l-.07-.04Zm.16-.34c0 .02-.04.1-.1.22l.07.04c.07-.15.1-.23.1-.23l-.08-.03Z" />
			<path
				d="M31.48 40.49s.03 0 .05-.01l-.02-.08s-.03 0-.05.01l.02.08Zm-.36.09.24-.06-.02-.08-.24.06.02.08Zm-.37.08c.08-.02.16-.03.24-.05l-.02-.08c-.08.02-.16.04-.24.05l.02.08Zm-.37.07c.08-.02.16-.03.24-.05l-.02-.08c-.08.02-.16.03-.24.05l.02.08Zm-.37.07c.08-.01.16-.03.25-.04l-.02-.08c-.08.02-.16.03-.24.04v.08h.01Zm-.37.06c.08-.01.16-.03.25-.04v-.08c-.1.01-.18.03-.26.04v.08h.01Zm-.37.05c.08-.01.16-.02.25-.04v-.08l-.26.03v.08Zm-.36.05c.08 0 .16-.02.25-.03v-.08l-.26.03v.08Zm-.36.04c.08 0 .17-.02.25-.03v-.08c-.09 0-.17.02-.26.03V41Zm-.36.03c.08 0 .17-.01.25-.02v-.08c-.09 0-.17.02-.26.02v.08Zm-.37.03c.08 0 .17-.01.25-.02v-.08c-.09 0-.17.01-.25.02v.08Zm-.37.02c.08 0 .17 0 .25-.01v-.08c-.09 0-.17 0-.25.01v.08Zm-.37.02c.08 0 .17 0 .25-.01v-.08c-.09 0-.17 0-.25.01v.08Zm-.37.01h.25v-.08h-.25v.08Zm-.37 0h.25v-.08h-.25v.08Zm-.37 0h.24v-.08h-.24v.08Zm-.37 0h.25v-.08h-.25v.08Zm-.37-.01h.25v-.08h-.25v.08Zm-.37-.02c.08 0 .17 0 .25.01v-.08c-.08 0-.16 0-.24-.01v.08Zm-.38-.02c.08 0 .16.01.25.02V41c-.08 0-.16-.01-.24-.02v.08Zm-.37-.03c.08 0 .16.01.25.02v-.08c-.08 0-.16-.01-.24-.02v.08Zm-.37-.03c.08 0 .16.02.25.02v-.08c-.08 0-.16-.02-.24-.02V41Zm-.38-.04c.08 0 .16.02.25.03v-.08c-.08 0-.16-.02-.24-.03v.08Zm-.37-.05.25.03v-.08c-.07-.01-.16-.02-.24-.03v.08h-.01Zm-.37-.05.25.03v-.08c-.07-.01-.16-.02-.24-.03v.08h-.01Zm-.37-.06c.08.01.16.03.25.04v-.08c-.07-.01-.16-.03-.23-.04v.08Zm-.38-.06c.08.01.16.03.25.04v-.08c-.07-.01-.15-.03-.23-.04v.08h-.01Zm-.37-.07c.07.01.15.03.25.05l.02-.08c-.09-.02-.17-.03-.24-.05l-.02.08Zm-.37-.08s.09.02.24.06l.02-.08c-.08-.02-.14-.03-.18-.04-.02 0-.04 0-.05-.01h-.01l-.02.08Zm10.34.12s.03 0 .05-.01l-.02-.08s-.03 0-.05.01l.02.08Zm-.36.09.24-.06-.02-.08-.24.06.02.08Zm-.36.08c.08-.02.16-.04.24-.05l-.02-.08c-.08.02-.16.04-.24.05l.02.08Zm-.37.08c.08-.02.16-.03.24-.05l-.02-.08c-.08.02-.16.03-.24.05l.02.08Zm-.37.07c.08-.01.16-.03.25-.05l-.02-.08c-.08.02-.16.03-.24.05v.08h.01Zm-.37.06c.08-.01.16-.03.25-.04v-.08c-.1.01-.18.03-.26.04v.08Zm-.36.06c.08-.01.16-.02.25-.04v-.08c-.09.01-.18.03-.26.04v.08h.01Zm-.37.05.25-.03v-.08l-.26.03v.08Zm-.36.04c.08 0 .17-.02.25-.03v-.08c-.09 0-.17.02-.26.03v.08Zm-.37.04c.08 0 .17-.02.25-.02v-.08c-.09 0-.17.02-.26.02v.08Zm-.37.03c.08 0 .17-.01.25-.02v-.08c-.09 0-.17.01-.26.02v.08Zm-.37.03c.08 0 .17-.01.25-.02v-.08c-.09 0-.17.01-.25.02v.08Zm-.37.02c.08 0 .17 0 .25-.01v-.08c-.09 0-.17 0-.25.01v.08Zm-.37.01h.25v-.08h-.25v.08Zm-.37 0h.25v-.08h-.25v.08Zm-.37 0h.25v-.08h-.25v.08Zm-.37 0h.25v-.08h-.25v.08Zm-.38 0h.25v-.08h-.25v.08Zm-.38-.01c.08 0 .17 0 .25.01v-.08c-.08 0-.16 0-.25-.01v.08Zm-.37-.02c.08 0 .17 0 .25.01v-.08c-.08 0-.16 0-.24-.01v.08Zm-.38-.03c.08 0 .16.01.25.02v-.08c-.08 0-.16-.01-.24-.02v.08Zm-.37-.03c.08 0 .16.01.25.02v-.08c-.08 0-.16-.01-.24-.02v.08Zm-.37-.04c.08 0 .16.02.25.03v-.08c-.08 0-.16-.02-.24-.03v.08Zm-.37-.04c.08 0 .16.02.25.03v-.08c-.08 0-.16-.02-.24-.03v.08h-.01Zm-.37-.05.25.03v-.08c-.07-.01-.16-.02-.24-.03v.08h-.01Zm-.37-.05c.08.01.16.02.25.04v-.08c-.07-.01-.16-.02-.23-.04v.08h-.01Zm-.37-.06c.08.01.16.03.25.04V41c-.07-.01-.16-.03-.23-.04v.08h-.01Zm-.37-.07c.07.01.15.03.25.05v-.08c-.08-.02-.16-.03-.23-.05l-.02.08Zm-.37-.08s.09.02.25.05l.02-.08c-.08-.02-.14-.03-.18-.04-.02 0-.04 0-.05-.01h-.01l-.02.08Zm-1.38-2.32-1.36.67s1.99 1.54 7.83 1.6c3.6 0 6.86-1.04 7.83-1.58l-1.21-.67s-3.68.89-6.77.89-6.31-.91-6.31-.91Z" />
			<path
				d="m19.74 38.57-.05-.1-1.36.67s-.06.05-.06.09c0 .04.01.08.04.1.01 0 .52.4 1.76.8s3.21.8 6.14.83c1.81 0 3.53-.26 4.93-.59.7-.16 1.31-.35 1.81-.52.25-.09.47-.17.67-.25.19-.08.35-.16.48-.23a.11.11 0 0 0 .06-.1.11.11 0 0 0-.06-.1l-1.21-.67s-.05-.02-.08-.01h-.01c-.11.03-1.05.25-2.33.46-1.28.21-2.91.42-4.4.42-1.53 0-3.11-.23-4.29-.45-.59-.11-1.09-.23-1.44-.31-.17-.04-.31-.08-.41-.1-.05-.01-.08-.02-.11-.03h-.11l.05.1-.03.11s.81.23 2.01.46c1.2.23 2.78.45 4.34.45s3.25-.22 4.56-.44c1.31-.22 2.23-.44 2.23-.44l-.03-.11-.06.1.02.01c.06.03.28.16 1.19.66l.06-.1-.06-.1c-.12.06-.27.14-.46.22-.33.14-.75.29-1.25.44-1.51.46-3.72.9-6.06.9-2.91-.03-4.85-.43-6.07-.82-.61-.19-1.03-.39-1.3-.53-.14-.07-.23-.13-.3-.17-.03-.02-.05-.04-.07-.05 0 0-.01 0-.02-.01s-.03.04-.03.04l.03-.04-.03.04.03-.04-.07.09.07-.09-.07.09.07-.09-.07.09.05.1 1.36-.67-.05-.1-.03.11.03-.11Z" />
			<path
				d="M19.7 38.64s2.07 4.24 6.41 4.49c3.11 0 5.23-2.02 6.71-4.55 1.08.66 1.21.67 1.21.67s-1.88 4.95-7.66 5.14c-5-.02-7.3-3.68-7.92-5.18.76-.33 1.25-.58 1.25-.58Z" />
			<path
				d="m19.7 38.64-.1.05s.52 1.08 1.6 2.18a8.48 8.48 0 0 0 2.03 1.55c.82.44 1.78.76 2.88.82.79 0 1.52-.13 2.19-.36 1.01-.35 1.88-.93 2.65-1.67.76-.73 1.41-1.62 1.97-2.57l-.1-.06-.06.1c.54.33.85.5 1.02.59.09.04.14.07.17.08.02 0 .03.01.04.01h.03l.02-.11-.11-.04s-.47 1.24-1.65 2.48c-.59.62-1.35 1.25-2.33 1.73-.97.48-2.15.82-3.58.87v.11-.11c-1.24 0-2.3-.23-3.22-.6a8.385 8.385 0 0 1-3.16-2.25 8.494 8.494 0 0 1-1.44-2.26l-.11.04.05.11c.76-.33 1.26-.58 1.26-.58l-.05-.1-.1.05.1-.05-.05-.1s-.51.26-1.24.57c-.06.02-.08.09-.06.15.16.38.42.9.81 1.46.58.84 1.43 1.79 2.62 2.52 1.19.74 2.7 1.26 4.6 1.27 1.46-.05 2.68-.4 3.68-.9.75-.37 1.38-.83 1.91-1.31a8.92 8.92 0 0 0 1.67-2.04c.35-.57.5-.97.5-.98.01-.03 0-.07 0-.1s-.05-.05-.08-.06v.09-.09.09-.09.04-.04l-.01.04v-.04s-.02 0-.05-.02c-.05-.02-.16-.08-.33-.17-.18-.1-.43-.25-.79-.47a.097.097 0 0 0-.09-.01c-.03 0-.06.03-.07.05-.73 1.25-1.63 2.38-2.71 3.19-.54.4-1.14.73-1.78.96-.65.22-1.35.35-2.11.35v.11-.11a6.695 6.695 0 0 1-2.78-.79c-1.19-.64-2.07-1.55-2.66-2.3-.29-.37-.51-.71-.66-.95-.07-.12-.13-.22-.16-.28-.02-.03-.03-.06-.04-.08v-.02h-.01.01-.01.01s-.04-.05-.07-.06h-.09l.05.1Z" />
		</g>
	</g>

</svg>